<?xml version="1.0" encoding="UTF-8" standalone="no"?><svg xmlns="http://www.w3.org/2000/svg" xmlns:xlink="http://www.w3.org/1999/xlink" contentScriptType="application/ecmascript" contentStyleType="text/css" height="937px" preserveAspectRatio="none" style="width:826px;height:937px;" version="1.1" viewBox="0 0 826 937" width="826px" zoomAndPan="magnify"><defs><filter height="300%" id="f1uu12o59iywbz" width="300%" x="-1" y="-1"><feGaussianBlur result="blurOut" stdDeviation="2.0"/><feColorMatrix in="blurOut" result="blurOut2" type="matrix" values="0 0 0 0 0 0 0 0 0 0 0 0 0 0 0 0 0 0 .4 0"/><feOffset dx="4.0" dy="4.0" in="blurOut2" result="blurOut3"/><feBlend in="SourceGraphic" in2="blurOut3" mode="normal"/></filter></defs><g><text fill="#000000" font-family="sans-serif" font-size="18" lengthAdjust="spacingAndGlyphs" textLength="293" x="267" y="16.708">Class Diagram for process-results</text><!--class Args--><rect fill="#FEFECE" filter="url(#f1uu12o59iywbz)" height="188.8516" id="Args" style="stroke: #A80036; stroke-width: 1.5;" width="99" x="404.5" y="153.9531"/><ellipse cx="437.05" cy="169.9531" fill="#ADD1B2" rx="11" ry="11" style="stroke: #A80036; stroke-width: 1.0;"/><path d="M440.0188,175.5938 Q439.4406,175.8906 438.8,176.0313 Q438.1594,176.1875 437.4563,176.1875 Q434.9563,176.1875 433.6281,174.5469 Q432.3156,172.8906 432.3156,169.7656 Q432.3156,166.6406 433.6281,164.9844 Q434.9563,163.3281 437.4563,163.3281 Q438.1594,163.3281 438.8,163.4844 Q439.4563,163.6406 440.0188,163.9375 L440.0188,166.6563 Q439.3938,166.0781 438.8,165.8125 Q438.2063,165.5313 437.5813,165.5313 Q436.2375,165.5313 435.55,166.6094 Q434.8625,167.6719 434.8625,169.7656 Q434.8625,171.8594 435.55,172.9375 Q436.2375,174 437.5813,174 Q438.2063,174 438.8,173.7344 Q439.3938,173.4531 440.0188,172.875 L440.0188,175.5938 Z "/><text fill="#000000" font-family="sans-serif" font-size="12" lengthAdjust="spacingAndGlyphs" textLength="28" x="454.95" y="174.1074">Args</text><line style="stroke: #A80036; stroke-width: 1.5;" x1="405.5" x2="502.5" y1="185.9531" y2="185.9531"/><rect fill="none" height="6" style="stroke: #C82930; stroke-width: 1.0;" width="6" x="412.5" y="194.8555"/><text fill="#000000" font-family="sans-serif" font-size="11" lengthAdjust="spacingAndGlyphs" textLength="50" x="424.5" y="200.1636">__rootdir</text><rect fill="none" height="6" style="stroke: #C82930; stroke-width: 1.0;" width="6" x="412.5" y="207.6602"/><text fill="#000000" font-family="sans-serif" font-size="11" lengthAdjust="spacingAndGlyphs" textLength="38" x="424.5" y="212.9683">__args</text><rect fill="none" height="6" style="stroke: #C82930; stroke-width: 1.0;" width="6" x="412.5" y="220.4648"/><text fill="#000000" font-family="sans-serif" font-size="11" lengthAdjust="spacingAndGlyphs" textLength="52" x="424.5" y="225.7729">__cooked</text><line style="stroke: #A80036; stroke-width: 1.5;" x1="405.5" x2="502.5" y1="232.3672" y2="232.3672"/><rect fill="#F24D5C" height="6" style="stroke: #C82930; stroke-width: 1.0;" width="6" x="412.5" y="241.2695"/><text fill="#000000" font-family="sans-serif" font-size="11" lengthAdjust="spacingAndGlyphs" textLength="49" x="424.5" y="246.5776">__init__()</text><rect fill="#F24D5C" height="6" style="stroke: #C82930; stroke-width: 1.0;" width="6" x="412.5" y="254.0742"/><text fill="#000000" font-family="sans-serif" font-size="11" lengthAdjust="spacingAndGlyphs" textLength="73" x="424.5" y="259.3823">__detailsdir()</text><rect fill="#F24D5C" height="6" style="stroke: #C82930; stroke-width: 1.0;" width="6" x="412.5" y="266.8789"/><text fill="#000000" font-family="sans-serif" font-size="11" lengthAdjust="spacingAndGlyphs" textLength="63" x="424.5" y="272.187">__resfiles()</text><ellipse cx="415.5" cy="282.6836" fill="#84BE84" rx="3" ry="3" style="stroke: #038048; stroke-width: 1.0;"/><text fill="#000000" font-family="sans-serif" font-size="11" lengthAdjust="spacingAndGlyphs" textLength="48" x="424.5" y="284.9917">all_ags()</text><ellipse cx="415.5" cy="295.4883" fill="#84BE84" rx="3" ry="3" style="stroke: #038048; stroke-width: 1.0;"/><text fill="#000000" font-family="sans-serif" font-size="11" lengthAdjust="spacingAndGlyphs" textLength="52" x="424.5" y="297.7964">log_raw()</text><ellipse cx="415.5" cy="308.293" fill="#84BE84" rx="3" ry="3" style="stroke: #038048; stroke-width: 1.0;"/><text fill="#000000" font-family="sans-serif" font-size="11" lengthAdjust="spacingAndGlyphs" textLength="71" x="424.5" y="310.6011">log_cooked()</text><ellipse cx="415.5" cy="321.0977" fill="#84BE84" rx="3" ry="3" style="stroke: #038048; stroke-width: 1.0;"/><text fill="#000000" font-family="sans-serif" font-size="11" lengthAdjust="spacingAndGlyphs" textLength="25" x="424.5" y="323.4058">log()</text><ellipse cx="415.5" cy="333.9023" fill="#84BE84" rx="3" ry="3" style="stroke: #038048; stroke-width: 1.0;"/><text fill="#000000" font-family="sans-serif" font-size="11" lengthAdjust="spacingAndGlyphs" textLength="40" x="424.5" y="336.2104">logdir()</text><!--class Result--><rect fill="#FEFECE" filter="url(#f1uu12o59iywbz)" height="137.6328" id="Result" style="stroke: #A80036; stroke-width: 1.5;" width="91" x="73.5" y="775.4531"/><ellipse cx="97.5" cy="791.4531" fill="#ADD1B2" rx="11" ry="11" style="stroke: #A80036; stroke-width: 1.0;"/><path d="M100.4688,797.0938 Q99.8906,797.3906 99.25,797.5313 Q98.6094,797.6875 97.9063,797.6875 Q95.4063,797.6875 94.0781,796.0469 Q92.7656,794.3906 92.7656,791.2656 Q92.7656,788.1406 94.0781,786.4844 Q95.4063,784.8281 97.9063,784.8281 Q98.6094,784.8281 99.25,784.9844 Q99.9063,785.1406 100.4688,785.4375 L100.4688,788.1563 Q99.8438,787.5781 99.25,787.3125 Q98.6563,787.0313 98.0313,787.0313 Q96.6875,787.0313 96,788.1094 Q95.3125,789.1719 95.3125,791.2656 Q95.3125,793.3594 96,794.4375 Q96.6875,795.5 98.0313,795.5 Q98.6563,795.5 99.25,795.2344 Q99.8438,794.9531 100.4688,794.375 L100.4688,797.0938 Z "/><text fill="#000000" font-family="sans-serif" font-size="12" lengthAdjust="spacingAndGlyphs" textLength="39" x="113.5" y="795.6074">Result</text><line style="stroke: #A80036; stroke-width: 1.5;" x1="74.5" x2="163.5" y1="807.4531" y2="807.4531"/><rect fill="none" height="6" style="stroke: #C82930; stroke-width: 1.0;" width="6" x="81.5" y="816.3555"/><text fill="#000000" font-family="sans-serif" font-size="11" lengthAdjust="spacingAndGlyphs" textLength="65" x="93.5" y="821.6636">__geomean</text><rect fill="none" height="6" style="stroke: #C82930; stroke-width: 1.0;" width="6" x="81.5" y="829.1602"/><text fill="#000000" font-family="sans-serif" font-size="11" lengthAdjust="spacingAndGlyphs" textLength="47" x="93.5" y="834.4683">__geosd</text><line style="stroke: #A80036; stroke-width: 1.5;" x1="74.5" x2="163.5" y1="841.0625" y2="841.0625"/><rect fill="#F24D5C" height="6" style="stroke: #C82930; stroke-width: 1.0;" width="6" x="81.5" y="849.9648"/><text fill="#000000" font-family="sans-serif" font-size="11" lengthAdjust="spacingAndGlyphs" textLength="49" x="93.5" y="855.2729">__init__()</text><ellipse cx="84.5" cy="865.7695" fill="#84BE84" rx="3" ry="3" style="stroke: #038048; stroke-width: 1.0;"/><text fill="#000000" font-family="sans-serif" font-size="11" lengthAdjust="spacingAndGlyphs" textLength="61" x="93.5" y="868.0776">geomean()</text><ellipse cx="84.5" cy="878.5742" fill="#84BE84" rx="3" ry="3" style="stroke: #038048; stroke-width: 1.0;"/><text fill="#000000" font-family="sans-serif" font-size="11" lengthAdjust="spacingAndGlyphs" textLength="43" x="93.5" y="880.8823">geosd()</text><ellipse cx="84.5" cy="891.3789" fill="#84BE84" rx="3" ry="3" style="stroke: #038048; stroke-width: 1.0;"/><text fill="#000000" font-family="sans-serif" font-size="11" lengthAdjust="spacingAndGlyphs" textLength="57" x="93.5" y="893.687">range_lo()</text><ellipse cx="84.5" cy="904.1836" fill="#84BE84" rx="3" ry="3" style="stroke: #038048; stroke-width: 1.0;"/><text fill="#000000" font-family="sans-serif" font-size="11" lengthAdjust="spacingAndGlyphs" textLength="57" x="93.5" y="906.4917">range_hi()</text><!--class DetailedRecord--><rect fill="#FEFECE" filter="url(#f1uu12o59iywbz)" height="163.2422" id="DetailedRecord" style="stroke: #A80036; stroke-width: 1.5;" width="128" x="254" y="762.9531"/><ellipse cx="269" cy="778.9531" fill="#ADD1B2" rx="11" ry="11" style="stroke: #A80036; stroke-width: 1.0;"/><path d="M271.9688,784.5938 Q271.3906,784.8906 270.75,785.0313 Q270.1094,785.1875 269.4063,785.1875 Q266.9063,785.1875 265.5781,783.5469 Q264.2656,781.8906 264.2656,778.7656 Q264.2656,775.6406 265.5781,773.9844 Q266.9063,772.3281 269.4063,772.3281 Q270.1094,772.3281 270.75,772.4844 Q271.4063,772.6406 271.9688,772.9375 L271.9688,775.6563 Q271.3438,775.0781 270.75,774.8125 Q270.1563,774.5313 269.5313,774.5313 Q268.1875,774.5313 267.5,775.6094 Q266.8125,776.6719 266.8125,778.7656 Q266.8125,780.8594 267.5,781.9375 Q268.1875,783 269.5313,783 Q270.1563,783 270.75,782.7344 Q271.3438,782.4531 271.9688,781.875 L271.9688,784.5938 Z "/><text fill="#000000" font-family="sans-serif" font-size="12" lengthAdjust="spacingAndGlyphs" textLength="96" x="283" y="783.1074">DetailedRecord</text><line style="stroke: #A80036; stroke-width: 1.5;" x1="255" x2="381" y1="794.9531" y2="794.9531"/><rect fill="none" height="6" style="stroke: #C82930; stroke-width: 1.0;" width="6" x="262" y="803.8555"/><text fill="#000000" font-family="sans-serif" font-size="11" lengthAdjust="spacingAndGlyphs" textLength="48" x="274" y="809.1636">__resfile</text><rect fill="none" height="6" style="stroke: #C82930; stroke-width: 1.0;" width="6" x="262" y="816.6602"/><text fill="#000000" font-family="sans-serif" font-size="11" lengthAdjust="spacingAndGlyphs" textLength="75" x="274" y="821.9683">__json_data[]</text><rect fill="none" height="6" style="stroke: #C82930; stroke-width: 1.0;" width="6" x="262" y="829.4648"/><text fill="#000000" font-family="sans-serif" font-size="11" lengthAdjust="spacingAndGlyphs" textLength="69" x="274" y="834.7729">__err_lineno</text><rect fill="none" height="6" style="stroke: #C82930; stroke-width: 1.0;" width="6" x="262" y="842.2695"/><text fill="#000000" font-family="sans-serif" font-size="11" lengthAdjust="spacingAndGlyphs" textLength="65" x="274" y="847.5776">__err_colno</text><rect fill="none" height="6" style="stroke: #C82930; stroke-width: 1.0;" width="6" x="262" y="855.0742"/><text fill="#000000" font-family="sans-serif" font-size="11" lengthAdjust="spacingAndGlyphs" textLength="60" x="274" y="860.3823">__err_msg</text><line style="stroke: #A80036; stroke-width: 1.5;" x1="255" x2="381" y1="866.9766" y2="866.9766"/><rect fill="#F24D5C" height="6" style="stroke: #C82930; stroke-width: 1.0;" width="6" x="262" y="875.8789"/><text fill="#000000" font-family="sans-serif" font-size="11" lengthAdjust="spacingAndGlyphs" textLength="49" x="274" y="881.187">__init__()</text><ellipse cx="265" cy="891.6836" fill="#84BE84" rx="3" ry="3" style="stroke: #038048; stroke-width: 1.0;"/><text fill="#000000" font-family="sans-serif" font-size="11" lengthAdjust="spacingAndGlyphs" textLength="35" x="274" y="893.9917">desc()</text><ellipse cx="265" cy="904.4883" fill="#84BE84" rx="3" ry="3" style="stroke: #038048; stroke-width: 1.0;"/><text fill="#000000" font-family="sans-serif" font-size="11" lengthAdjust="spacingAndGlyphs" textLength="63" x="274" y="906.7964">json_data()</text><ellipse cx="265" cy="917.293" fill="#84BE84" rx="3" ry="3" style="stroke: #038048; stroke-width: 1.0;"/><text fill="#000000" font-family="sans-serif" font-size="11" lengthAdjust="spacingAndGlyphs" textLength="50" x="274" y="919.6011">errmsg()</text><!--class Record--><rect fill="#FEFECE" filter="url(#f1uu12o59iywbz)" height="265.6797" id="Record" style="stroke: #A80036; stroke-width: 1.5;" width="138" x="149" y="419.9531"/><ellipse cx="191.9" cy="435.9531" fill="#ADD1B2" rx="11" ry="11" style="stroke: #A80036; stroke-width: 1.0;"/><path d="M194.8688,441.5938 Q194.2906,441.8906 193.65,442.0313 Q193.0094,442.1875 192.3063,442.1875 Q189.8063,442.1875 188.4781,440.5469 Q187.1656,438.8906 187.1656,435.7656 Q187.1656,432.6406 188.4781,430.9844 Q189.8063,429.3281 192.3063,429.3281 Q193.0094,429.3281 193.65,429.4844 Q194.3063,429.6406 194.8688,429.9375 L194.8688,432.6563 Q194.2438,432.0781 193.65,431.8125 Q193.0563,431.5313 192.4313,431.5313 Q191.0875,431.5313 190.4,432.6094 Q189.7125,433.6719 189.7125,435.7656 Q189.7125,437.8594 190.4,438.9375 Q191.0875,440 192.4313,440 Q193.0563,440 193.65,439.7344 Q194.2438,439.4531 194.8688,438.875 L194.8688,441.5938 Z "/><text fill="#000000" font-family="sans-serif" font-size="12" lengthAdjust="spacingAndGlyphs" textLength="44" x="212.1" y="440.1074">Record</text><line style="stroke: #A80036; stroke-width: 1.5;" x1="150" x2="286" y1="451.9531" y2="451.9531"/><rect fill="none" height="6" style="stroke: #C82930; stroke-width: 1.0;" width="6" x="157" y="460.8555"/><text fill="#000000" font-family="sans-serif" font-size="11" lengthAdjust="spacingAndGlyphs" textLength="100" x="169" y="466.1636">__detailed_record</text><rect fill="none" height="6" style="stroke: #C82930; stroke-width: 1.0;" width="6" x="157" y="473.6602"/><text fill="#000000" font-family="sans-serif" font-size="11" lengthAdjust="spacingAndGlyphs" textLength="105" x="169" y="478.9683">__details_wikipage</text><rect fill="none" height="6" style="stroke: #C82930; stroke-width: 1.0;" width="6" x="157" y="486.4648"/><text fill="#000000" font-family="sans-serif" font-size="11" lengthAdjust="spacingAndGlyphs" textLength="39" x="169" y="491.7729">__desc</text><rect fill="none" height="6" style="stroke: #C82930; stroke-width: 1.0;" width="6" x="157" y="499.2695"/><text fill="#000000" font-family="sans-serif" font-size="11" lengthAdjust="spacingAndGlyphs" textLength="37" x="169" y="504.5776">__arch</text><rect fill="none" height="6" style="stroke: #C82930; stroke-width: 1.0;" width="6" x="157" y="512.0742"/><text fill="#000000" font-family="sans-serif" font-size="11" lengthAdjust="spacingAndGlyphs" textLength="112" x="169" y="517.3823">__embench_version</text><rect fill="none" height="6" style="stroke: #C82930; stroke-width: 1.0;" width="6" x="157" y="524.8789"/><text fill="#000000" font-family="sans-serif" font-size="11" lengthAdjust="spacingAndGlyphs" textLength="61" x="169" y="530.187">__cpu_mhz</text><rect fill="none" height="6" style="stroke: #C82930; stroke-width: 1.0;" width="6" x="157" y="537.6836"/><text fill="#000000" font-family="sans-serif" font-size="11" lengthAdjust="spacingAndGlyphs" textLength="60" x="169" y="542.9917">__results[]</text><line style="stroke: #A80036; stroke-width: 1.5;" x1="150" x2="286" y1="549.5859" y2="549.5859"/><rect fill="#F24D5C" height="6" style="stroke: #C82930; stroke-width: 1.0;" width="6" x="157" y="558.4883"/><text fill="#000000" font-family="sans-serif" font-size="11" lengthAdjust="spacingAndGlyphs" textLength="49" x="169" y="563.7964">__init__()</text><ellipse cx="160" cy="574.293" fill="#84BE84" rx="3" ry="3" style="stroke: #038048; stroke-width: 1.0;"/><text fill="#000000" font-family="sans-serif" font-size="11" lengthAdjust="spacingAndGlyphs" textLength="65" x="169" y="576.6011">valid_data()</text><ellipse cx="160" cy="587.0977" fill="#84BE84" rx="3" ry="3" style="stroke: #038048; stroke-width: 1.0;"/><text fill="#000000" font-family="sans-serif" font-size="11" lengthAdjust="spacingAndGlyphs" textLength="80" x="169" y="589.4058">write_details()</text><ellipse cx="160" cy="599.9023" fill="#84BE84" rx="3" ry="3" style="stroke: #038048; stroke-width: 1.0;"/><text fill="#000000" font-family="sans-serif" font-size="11" lengthAdjust="spacingAndGlyphs" textLength="101" x="169" y="602.2104">details_wikipage()</text><ellipse cx="160" cy="612.707" fill="#84BE84" rx="3" ry="3" style="stroke: #038048; stroke-width: 1.0;"/><text fill="#000000" font-family="sans-serif" font-size="11" lengthAdjust="spacingAndGlyphs" textLength="35" x="169" y="615.0151">desc()</text><ellipse cx="160" cy="625.5117" fill="#84BE84" rx="3" ry="3" style="stroke: #038048; stroke-width: 1.0;"/><text fill="#000000" font-family="sans-serif" font-size="11" lengthAdjust="spacingAndGlyphs" textLength="33" x="169" y="627.8198">arch()</text><ellipse cx="160" cy="638.3164" fill="#84BE84" rx="3" ry="3" style="stroke: #038048; stroke-width: 1.0;"/><text fill="#000000" font-family="sans-serif" font-size="11" lengthAdjust="spacingAndGlyphs" textLength="108" x="169" y="640.6245">embench_version()</text><ellipse cx="160" cy="651.1211" fill="#84BE84" rx="3" ry="3" style="stroke: #038048; stroke-width: 1.0;"/><text fill="#000000" font-family="sans-serif" font-size="11" lengthAdjust="spacingAndGlyphs" textLength="57" x="169" y="653.4292">cpu_mhz()</text><ellipse cx="160" cy="663.9258" fill="#84BE84" rx="3" ry="3" style="stroke: #038048; stroke-width: 1.0;"/><text fill="#000000" font-family="sans-serif" font-size="11" lengthAdjust="spacingAndGlyphs" textLength="48" x="169" y="666.2339">results()</text><ellipse cx="160" cy="676.7305" fill="#84BE84" rx="3" ry="3" style="stroke: #038048; stroke-width: 1.0;"/><text fill="#000000" font-family="sans-serif" font-size="11" lengthAdjust="spacingAndGlyphs" textLength="46" x="169" y="679.0386">details()</text><!--class Logger--><rect fill="#FEFECE" filter="url(#f1uu12o59iywbz)" height="124.8281" id="Logger" style="stroke: #A80036; stroke-width: 1.5;" width="79" x="538.5" y="185.9531"/><ellipse cx="555.3" cy="201.9531" fill="#ADD1B2" rx="11" ry="11" style="stroke: #A80036; stroke-width: 1.0;"/><path d="M558.2688,207.5938 Q557.6906,207.8906 557.05,208.0313 Q556.4094,208.1875 555.7063,208.1875 Q553.2063,208.1875 551.8781,206.5469 Q550.5656,204.8906 550.5656,201.7656 Q550.5656,198.6406 551.8781,196.9844 Q553.2063,195.3281 555.7063,195.3281 Q556.4094,195.3281 557.05,195.4844 Q557.7063,195.6406 558.2688,195.9375 L558.2688,198.6563 Q557.6438,198.0781 557.05,197.8125 Q556.4563,197.5313 555.8313,197.5313 Q554.4875,197.5313 553.8,198.6094 Q553.1125,199.6719 553.1125,201.7656 Q553.1125,203.8594 553.8,204.9375 Q554.4875,206 555.8313,206 Q556.4563,206 557.05,205.7344 Q557.6438,205.4531 558.2688,204.875 L558.2688,207.5938 Z "/><text fill="#000000" font-family="sans-serif" font-size="12" lengthAdjust="spacingAndGlyphs" textLength="43" x="569.7" y="206.1074">Logger</text><line style="stroke: #A80036; stroke-width: 1.5;" x1="539.5" x2="616.5" y1="217.9531" y2="217.9531"/><rect fill="none" height="6" style="stroke: #C82930; stroke-width: 1.0;" width="6" x="546.5" y="226.8555"/><text fill="#000000" font-family="sans-serif" font-size="11" lengthAdjust="spacingAndGlyphs" textLength="29" x="558.5" y="232.1636">__log</text><line style="stroke: #A80036; stroke-width: 1.5;" x1="539.5" x2="616.5" y1="238.7578" y2="238.7578"/><rect fill="#F24D5C" height="6" style="stroke: #C82930; stroke-width: 1.0;" width="6" x="546.5" y="247.6602"/><text fill="#000000" font-family="sans-serif" font-size="11" lengthAdjust="spacingAndGlyphs" textLength="49" x="558.5" y="252.9683">__init__()</text><ellipse cx="549.5" cy="263.4648" fill="#84BE84" rx="3" ry="3" style="stroke: #038048; stroke-width: 1.0;"/><text fill="#000000" font-family="sans-serif" font-size="11" lengthAdjust="spacingAndGlyphs" textLength="29" x="558.5" y="265.7729">info()</text><ellipse cx="549.5" cy="276.2695" fill="#84BE84" rx="3" ry="3" style="stroke: #038048; stroke-width: 1.0;"/><text fill="#000000" font-family="sans-serif" font-size="11" lengthAdjust="spacingAndGlyphs" textLength="43" x="558.5" y="278.5776">debug()</text><ellipse cx="549.5" cy="289.0742" fill="#84BE84" rx="3" ry="3" style="stroke: #038048; stroke-width: 1.0;"/><text fill="#000000" font-family="sans-serif" font-size="11" lengthAdjust="spacingAndGlyphs" textLength="53" x="558.5" y="291.3823">warning()</text><ellipse cx="549.5" cy="301.8789" fill="#84BE84" rx="3" ry="3" style="stroke: #038048; stroke-width: 1.0;"/><text fill="#000000" font-family="sans-serif" font-size="11" lengthAdjust="spacingAndGlyphs" textLength="37" x="558.5" y="304.187">error()</text><!--class Readme--><rect fill="#FEFECE" filter="url(#f1uu12o59iywbz)" height="163.2422" id="Readme" style="stroke: #A80036; stroke-width: 1.5;" width="108" x="6" y="471.4531"/><ellipse cx="32.25" cy="487.4531" fill="#ADD1B2" rx="11" ry="11" style="stroke: #A80036; stroke-width: 1.0;"/><path d="M35.2188,493.0938 Q34.6406,493.3906 34,493.5313 Q33.3594,493.6875 32.6563,493.6875 Q30.1563,493.6875 28.8281,492.0469 Q27.5156,490.3906 27.5156,487.2656 Q27.5156,484.1406 28.8281,482.4844 Q30.1563,480.8281 32.6563,480.8281 Q33.3594,480.8281 34,480.9844 Q34.6563,481.1406 35.2188,481.4375 L35.2188,484.1563 Q34.5938,483.5781 34,483.3125 Q33.4063,483.0313 32.7813,483.0313 Q31.4375,483.0313 30.75,484.1094 Q30.0625,485.1719 30.0625,487.2656 Q30.0625,489.3594 30.75,490.4375 Q31.4375,491.5 32.7813,491.5 Q33.4063,491.5 34,491.2344 Q34.5938,490.9531 35.2188,490.375 L35.2188,493.0938 Z "/><text fill="#000000" font-family="sans-serif" font-size="12" lengthAdjust="spacingAndGlyphs" textLength="51" x="48.75" y="491.6074">Readme</text><line style="stroke: #A80036; stroke-width: 1.5;" x1="7" x2="113" y1="503.4531" y2="503.4531"/><rect fill="none" height="6" style="stroke: #C82930; stroke-width: 1.0;" width="6" x="14" y="512.3555"/><text fill="#000000" font-family="sans-serif" font-size="11" lengthAdjust="spacingAndGlyphs" textLength="81" x="26" y="517.6636">__readme_hdr</text><rect fill="none" height="6" style="stroke: #C82930; stroke-width: 1.0;" width="6" x="14" y="525.1602"/><text fill="#000000" font-family="sans-serif" font-size="11" lengthAdjust="spacingAndGlyphs" textLength="56" x="26" y="530.4683">__readme</text><rect fill="none" height="6" style="stroke: #C82930; stroke-width: 1.0;" width="6" x="14" y="537.9648"/><text fill="#000000" font-family="sans-serif" font-size="11" lengthAdjust="spacingAndGlyphs" textLength="71" x="26" y="543.2729">__details_dir</text><line style="stroke: #A80036; stroke-width: 1.5;" x1="7" x2="113" y1="549.8672" y2="549.8672"/><rect fill="#F24D5C" height="6" style="stroke: #C82930; stroke-width: 1.0;" width="6" x="14" y="558.7695"/><text fill="#000000" font-family="sans-serif" font-size="11" lengthAdjust="spacingAndGlyphs" textLength="49" x="26" y="564.0776">__init__()</text><rect fill="#F24D5C" height="6" style="stroke: #C82930; stroke-width: 1.0;" width="6" x="14" y="571.5742"/><text fill="#000000" font-family="sans-serif" font-size="11" lengthAdjust="spacingAndGlyphs" textLength="80" x="26" y="576.8823">__wiki_tblhdr()</text><rect fill="#F24D5C" height="6" style="stroke: #C82930; stroke-width: 1.0;" width="6" x="14" y="584.3789"/><text fill="#000000" font-family="sans-serif" font-size="11" lengthAdjust="spacingAndGlyphs" textLength="82" x="26" y="589.687">__wiki_tblrow()</text><rect fill="#F24D5C" height="6" style="stroke: #C82930; stroke-width: 1.0;" width="6" x="14" y="597.1836"/><text fill="#000000" font-family="sans-serif" font-size="11" lengthAdjust="spacingAndGlyphs" textLength="74" x="26" y="602.4917">__wiki_tblftr()</text><ellipse cx="17" cy="612.9883" fill="#84BE84" rx="3" ry="3" style="stroke: #038048; stroke-width: 1.0;"/><text fill="#000000" font-family="sans-serif" font-size="11" lengthAdjust="spacingAndGlyphs" textLength="82" x="26" y="615.2964">write_header()</text><ellipse cx="17" cy="625.793" fill="#84BE84" rx="3" ry="3" style="stroke: #038048; stroke-width: 1.0;"/><text fill="#000000" font-family="sans-serif" font-size="11" lengthAdjust="spacingAndGlyphs" textLength="70" x="26" y="628.1011">write_table()</text><!--class Details--><rect fill="#FEFECE" filter="url(#f1uu12o59iywbz)" height="112.0234" id="Details" style="stroke: #A80036; stroke-width: 1.5;" width="108" x="659" y="192.4531"/><ellipse cx="688.85" cy="208.4531" fill="#ADD1B2" rx="11" ry="11" style="stroke: #A80036; stroke-width: 1.0;"/><path d="M691.8188,214.0938 Q691.2406,214.3906 690.6,214.5313 Q689.9594,214.6875 689.2563,214.6875 Q686.7563,214.6875 685.4281,213.0469 Q684.1156,211.3906 684.1156,208.2656 Q684.1156,205.1406 685.4281,203.4844 Q686.7563,201.8281 689.2563,201.8281 Q689.9594,201.8281 690.6,201.9844 Q691.2563,202.1406 691.8188,202.4375 L691.8188,205.1563 Q691.1938,204.5781 690.6,204.3125 Q690.0063,204.0313 689.3813,204.0313 Q688.0375,204.0313 687.35,205.1094 Q686.6625,206.1719 686.6625,208.2656 Q686.6625,210.3594 687.35,211.4375 Q688.0375,212.5 689.3813,212.5 Q690.0063,212.5 690.6,212.2344 Q691.1938,211.9531 691.8188,211.375 L691.8188,214.0938 Z "/><text fill="#000000" font-family="sans-serif" font-size="12" lengthAdjust="spacingAndGlyphs" textLength="43" x="706.15" y="212.6074">Details</text><line style="stroke: #A80036; stroke-width: 1.5;" x1="660" x2="766" y1="224.4531" y2="224.4531"/><rect fill="none" height="6" style="stroke: #C82930; stroke-width: 1.0;" width="6" x="667" y="233.3555"/><text fill="#000000" font-family="sans-serif" font-size="11" lengthAdjust="spacingAndGlyphs" textLength="61" x="679" y="238.6636">__filename</text><rect fill="none" height="6" style="stroke: #C82930; stroke-width: 1.0;" width="6" x="667" y="246.1602"/><text fill="#000000" font-family="sans-serif" font-size="11" lengthAdjust="spacingAndGlyphs" textLength="36" x="679" y="251.4683">__fileh</text><line style="stroke: #A80036; stroke-width: 1.5;" x1="660" x2="766" y1="258.0625" y2="258.0625"/><rect fill="#F24D5C" height="6" style="stroke: #C82930; stroke-width: 1.0;" width="6" x="667" y="266.9648"/><text fill="#000000" font-family="sans-serif" font-size="11" lengthAdjust="spacingAndGlyphs" textLength="49" x="679" y="272.2729">__init__()</text><rect fill="#F24D5C" height="6" style="stroke: #C82930; stroke-width: 1.0;" width="6" x="667" y="279.7695"/><text fill="#000000" font-family="sans-serif" font-size="11" lengthAdjust="spacingAndGlyphs" textLength="48" x="679" y="285.0776">__open()</text><ellipse cx="670" cy="295.5742" fill="#84BE84" rx="3" ry="3" style="stroke: #038048; stroke-width: 1.0;"/><text fill="#000000" font-family="sans-serif" font-size="11" lengthAdjust="spacingAndGlyphs" textLength="82" x="679" y="297.8823">write_results()</text><!--class main--><rect fill="#FEFECE" filter="url(#f1uu12o59iywbz)" height="48" id="main" style="stroke: #A80036; stroke-width: 1.5;" width="62" x="380" y="28.9531"/><ellipse cx="395" cy="44.9531" fill="#ADD1B2" rx="11" ry="11" style="stroke: #A80036; stroke-width: 1.0;"/><path d="M397.9688,50.5938 Q397.3906,50.8906 396.75,51.0313 Q396.1094,51.1875 395.4063,51.1875 Q392.9063,51.1875 391.5781,49.5469 Q390.2656,47.8906 390.2656,44.7656 Q390.2656,41.6406 391.5781,39.9844 Q392.9063,38.3281 395.4063,38.3281 Q396.1094,38.3281 396.75,38.4844 Q397.4063,38.6406 397.9688,38.9375 L397.9688,41.6563 Q397.3438,41.0781 396.75,40.8125 Q396.1563,40.5313 395.5313,40.5313 Q394.1875,40.5313 393.5,41.6094 Q392.8125,42.6719 392.8125,44.7656 Q392.8125,46.8594 393.5,47.9375 Q394.1875,49 395.5313,49 Q396.1563,49 396.75,48.7344 Q397.3438,48.4531 397.9688,47.875 L397.9688,50.5938 Z "/><text fill="#000000" font-family="sans-serif" font-size="12" lengthAdjust="spacingAndGlyphs" textLength="30" x="409" y="49.1074">main</text><line style="stroke: #A80036; stroke-width: 1.5;" x1="381" x2="441" y1="60.9531" y2="60.9531"/><line style="stroke: #A80036; stroke-width: 1.5;" x1="381" x2="441" y1="68.9531" y2="68.9531"/><ellipse cx="63" cy="248.4531" fill="#000000" rx="2" ry="2" style="stroke: none; stroke-width: 1.0;"/><!--link main to Args--><path d="M409.3696,77.1342 C408.8169,86.4495 408.2709,97.1918 408,106.9531 C407.7904,114.5057 406.6699,116.5155 408,123.9531 C409.7645,133.8202 412.2576,143.9287 415.1806,153.9118 " fill="none" id="main-Args" style="stroke: #A80036; stroke-width: 1.0;"/><text fill="#000000" font-family="sans-serif" font-size="13" lengthAdjust="spacingAndGlyphs" textLength="112" x="409" y="120.02">fetch parsed args</text><polygon fill="#000000" points="460.5,129.0859,463.5,135.0859,466.5,129.0859,460.5,129.0859" style="stroke: #000000; stroke-width: 1.0;"/><!--link main to Logger--><path d="M442.1387,58.1033 C471.2693,64.5413 513.9445,78.4006 539,106.9531 C558.0764,128.6919 567.9035,158.9688 572.9331,185.9398 " fill="none" id="main-Logger" style="stroke: #A80036; stroke-width: 1.0;"/><text fill="#000000" font-family="sans-serif" font-size="13" lengthAdjust="spacingAndGlyphs" textLength="85" x="551" y="120.02">create logger</text><polygon fill="#000000" points="639,114.0195,645,117.0195,639,120.0195,639,114.0195" style="stroke: #000000; stroke-width: 1.0;"/><!--link main to Record--><path d="M367.1967,64.2243 C324.4768,77.7704 261.725,105.0408 232,153.9531 C184.1237,232.7331 182.2151,337.3509 191.4333,419.6957 " fill="none" id="main-Record" style="stroke: #A80036; stroke-width: 1.0;"/><polygon fill="#FFFFFF" points="379.7528,60.4522,372.8556,58.3477,368.2602,63.9049,375.1574,66.0094,379.7528,60.4522" style="stroke: #A80036; stroke-width: 1.0;"/><text fill="#000000" font-family="sans-serif" font-size="13" lengthAdjust="spacingAndGlyphs" textLength="140" x="233" y="253.02">fetch analysed results</text><polygon fill="#000000" points="298.5,262.0859,301.5,268.0859,304.5,262.0859,298.5,262.0859" style="stroke: #000000; stroke-width: 1.0;"/><!--link main to Details--><path d="M455.161,57.5815 C517.7299,64.9592 627.935,81.2336 658,106.9531 C683.1351,128.4552 696.8441,162.8818 704.2893,192.3933 " fill="none" id="main-Details" style="stroke: #A80036; stroke-width: 1.0;"/><polygon fill="#FFFFFF" points="442.2079,56.101,447.7148,60.7565,454.1303,57.4638,448.6233,52.8083,442.2079,56.101" style="stroke: #A80036; stroke-width: 1.0;"/><text fill="#000000" font-family="sans-serif" font-size="13" lengthAdjust="spacingAndGlyphs" textLength="123" x="672" y="120.02">create detail pages</text><polygon fill="#000000" points="798,114.0195,804,117.0195,798,120.0195,798,114.0195" style="stroke: #000000; stroke-width: 1.0;"/><!--link main to apoint15--><path d="M379.9252,55.4444 C297.9688,62.3274 80.8002,82.7082 60,106.9531 C22.5617,150.5916 56.0718,232.6782 62.1079,246.4645 " fill="none" id="main-apoint15" style="stroke: #A80036; stroke-width: 1.0;"/><polygon fill="#000000" points="68,114.0195,62,117.0195,68,120.0195,68,114.0195" style="stroke: #000000; stroke-width: 1.0;"/><text fill="#000000" font-family="sans-serif" font-size="13" lengthAdjust="spacingAndGlyphs" textLength="113" x="74" y="120.02">create main page</text><!--link apoint15 to Readme--><path d="M62.9776,250.729 C62.8014,268.607 61.6256,387.9552 60.8054,471.2072 " fill="none" id="apoint15-Readme" style="stroke: #A80036; stroke-width: 1.0;"/><!--link apoint15 to Record--><path d="M63.9898,250.3976 C70.8481,263.8708 112.1495,345.008 150.2543,419.8656 " fill="none" id="apoint15-Record" style="stroke: #A80036; stroke-width: 1.0; stroke-dasharray: 7.0,7.0;"/><!--link Details to Record--><path d="M673.187,304.5028 C661.8502,318.1322 648.7996,331.9383 635,342.9531 C525.7192,430.1807 374.3749,495.2048 287.2725,528.3429 " fill="none" id="Details-Record" style="stroke: #A80036; stroke-width: 1.0;"/><polygon fill="#000000" points="602,380.0195,596,383.0195,602,386.0195,602,380.0195" style="stroke: #000000; stroke-width: 1.0;"/><text fill="#000000" font-family="sans-serif" font-size="13" lengthAdjust="spacingAndGlyphs" textLength="104" x="608" y="386.02">uses description</text><!--link Record to DetailedRecord--><path d="M268.6269,686.138 C272.2114,696.2009 275.7062,706.2222 279,715.9531 C284.0829,730.9696 289.2172,747.0751 294.017,762.6316 " fill="none" id="Record-DetailedRecord" style="stroke: #A80036; stroke-width: 1.0;"/><text fill="#000000" font-family="sans-serif" font-size="13" lengthAdjust="spacingAndGlyphs" textLength="144" x="285" y="729.02">create from JSON data</text><polygon fill="#000000" points="352.5,738.0859,355.5,744.0859,358.5,738.0859,352.5,738.0859" style="stroke: #000000; stroke-width: 1.0;"/><!--link Record to Result--><path d="M142.0077,669.47 C128.3593,691.4435 117.8307,709.5766 116,715.9531 C110.5811,734.8279 109.2422,755.9104 109.8186,775.4524 " fill="none" id="Record-Result" style="stroke: #A80036; stroke-width: 1.0;"/><polygon fill="#A80036" points="148.934,658.4092,142.3595,661.3715,142.5652,668.5797,149.1398,665.6174,148.934,658.4092" style="stroke: #A80036; stroke-width: 1.0;"/><text fill="#000000" font-family="sans-serif" font-size="13" lengthAdjust="spacingAndGlyphs" textLength="144" x="117" y="729.02">create Embench score</text><polygon fill="#000000" points="184.5,738.0859,187.5,744.0859,190.5,738.0859,184.5,738.0859" style="stroke: #000000; stroke-width: 1.0;"/><!--
@startuml

title Class Diagram for process-results

class Args {
  -__rootdir
  -__args
  -__cooked
  -__init__()
  -__detailsdir()
  -__resfiles()
  +all_ags()
  +log_raw()
  +log_cooked()
  +log()
  +logdir()
}

class Result {
  -__geomean
  -__geosd
  -__init__()
  +geomean()
  +geosd()
  +range_lo()
  +range_hi()
}

class DetailedRecord {
  -__resfile
  -__json_data[]
  -__err_lineno
  -__err_colno
  -__err_msg
  -__init__()
  +desc()
  +json_data()
  +errmsg()
}

class Record {
  -__detailed_record
  -__details_wikipage
  -__desc
  -__arch
  -__embench_version
  -__cpu_mhz
  -__results[]
  -__init__()
  +valid_data()
  +write_details()
  +details_wikipage()
  +desc()
  +arch()
  +embench_version()
  +cpu_mhz()
  +results()
  +details()
}

class Logger {
  -__log
  -__init__()
  +info()
  +debug()
  +warning()
  +error()
}

class Readme {
  -__readme_hdr
  -__readme
  -__details_dir
  -__init__()
  -__wiki_tblhdr()
  -__wiki_tblrow()
  -__wiki_tblftr()
  +write_header()
  +write_table()
}

class Details {
  -__filename
  -__fileh
  -__init__()
  -__open()
  +write_results()
}

class main

main - - Args : fetch parsed args >
main - - Logger : create logger >
main o- - Record : fetch analysed results >
main o- - Details : create detail pages >
main - - Readme : create main page >
(main, Readme) .. Record

Details - - Record : uses description >

Record - - DetailedRecord : create from JSON data >
Record *- - Result : create Embench score >

@enduml

PlantUML version 1.2018.13(Mon Nov 26 17:11:51 GMT 2018)
(GPL source distribution)
Java Runtime: OpenJDK Runtime Environment
JVM: OpenJDK 64-Bit Server VM
Java Version: 11.0.6+10-post-Ubuntu-1ubuntu119.10.1
Operating System: Linux
OS Version: 5.3.0-40-generic
Default Encoding: UTF-8
Language: en
Country: GB
--></g></svg>